<svg xmlns="http://www.w3.org/2000/svg" width="256" height="256" viewBox="0 0 100 100"><rect width="100" height="100" rx="20" fill="#009934"></rect><path fill="#fff" d="M27.28 60.30L44.44 27.09L48.80 27.09L48.80 72.91L43.92 72.91L43.99 37.42L29.10 65.63L25.33 65.63L10.38 37.68L10.45 72.91L5.51 72.91L5.51 27.09L9.93 27.09L27.28 60.30ZM86.17 49.38Q90.14 50.42 92.31 53.28Q94.49 56.14 94.49 60.43L94.49 60.43Q94.49 66.48 90.53 69.69Q86.56 72.91 79.28 72.91L79.28 72.91L60.17 72.91L60.17 27.09L78.57 27.09Q85.65 27.09 89.55 30.21Q93.45 33.33 93.45 39.05L93.45 39.05Q93.45 42.75 91.53 45.42Q89.62 48.08 86.17 49.38L86.17 49.38ZM65.44 31.51L65.44 47.43L77.79 47.43Q82.92 47.43 85.56 45.35Q88.19 43.27 88.19 39.31L88.19 39.31Q88.19 31.51 77.79 31.51L77.79 31.51L65.44 31.51ZM78.76 68.49Q84.16 68.49 86.72 66.51Q89.29 64.53 89.29 60.30L89.29 60.30Q89.29 51.85 78.76 51.85L78.76 51.85L65.44 51.85L65.44 68.49L78.76 68.49Z"></path></svg>